<svg width="24" height="24" viewBox="0 0 24 24" fill="none" xmlns="http://www.w3.org/2000/svg">
<path d="M15.54 12.5C15.54 13.1013 15.3617 13.689 15.0277 14.1889C14.6936 14.6889 14.2188 15.0785 13.6634 15.3086C13.1079 15.5387 12.4966 15.5989 11.9069 15.4816C11.3172 15.3643 10.7755 15.0748 10.3504 14.6496C9.92524 14.2245 9.63571 13.6828 9.51841 13.0931C9.40111 12.5034 9.46132 11.8921 9.69141 11.3366C9.9215 10.7812 10.3111 10.3064 10.8111 9.97233C11.311 9.63829 11.8987 9.46 12.5 9.46C13.3055 9.46251 14.0773 9.78359 14.6468 10.3532C15.2164 10.9227 15.5375 11.6945 15.54 12.5ZM22 8.32V16.68C22 18.091 21.4395 19.4441 20.4418 20.4418C19.4441 21.4395 18.091 22 16.68 22H8.32C6.90905 22 5.55589 21.4395 4.55819 20.4418C3.5605 19.4441 3 18.091 3 16.68V8.32C3 6.90905 3.5605 5.55589 4.55819 4.55819C5.55589 3.5605 6.90905 3 8.32 3H16.68C18.091 3 19.4441 3.5605 20.4418 4.55819C21.4395 5.55589 22 6.90905 22 8.32ZM17.06 12.5C17.06 11.5981 16.7926 10.7165 16.2915 9.9666C15.7904 9.21671 15.0783 8.63225 14.245 8.28711C13.4118 7.94197 12.4949 7.85167 11.6104 8.02762C10.7258 8.20357 9.91332 8.63787 9.27559 9.27559C8.63787 9.91332 8.20357 10.7258 8.02762 11.6104C7.85167 12.4949 7.94197 13.4118 8.28711 14.245C8.63225 15.0783 9.21671 15.7904 9.9666 16.2915C10.7165 16.7926 11.5981 17.06 12.5 17.06C13.7094 17.06 14.8692 16.5796 15.7244 15.7244C16.5796 14.8692 17.06 13.7094 17.06 12.5ZM18.58 7.56C18.58 7.33453 18.5131 7.11412 18.3879 6.92665C18.2626 6.73918 18.0846 6.59306 17.8763 6.50678C17.668 6.42049 17.4387 6.39792 17.2176 6.4419C16.9965 6.48589 16.7933 6.59447 16.6339 6.7539C16.4745 6.91333 16.3659 7.11646 16.3219 7.3376C16.2779 7.55873 16.3005 7.78795 16.3868 7.99626C16.4731 8.20457 16.6192 8.38261 16.8067 8.50788C16.9941 8.63314 17.2145 8.7 17.44 8.7C17.7423 8.7 18.0323 8.57989 18.2461 8.3661C18.4599 8.15231 18.58 7.86235 18.58 7.56Z" fill="white"/>
</svg>
