<svg width="24" height="24" viewBox="0 0 24 24" fill="none" xmlns="http://www.w3.org/2000/svg">
<path d="M8.33645 1.9328C5.03825 1.9328 2.35645 4.6146 2.35645 7.9128V16.1928C2.35645 19.491 5.03825 22.1728 8.33645 22.1728H16.6164C19.9146 22.1728 22.5964 19.491 22.5964 16.1928V7.9128C22.5964 4.6146 19.9146 1.9328 16.6164 1.9328H8.33645ZM17.9964 5.6128C18.5024 5.6128 18.9164 6.0268 18.9164 6.5328C18.9164 7.0388 18.5024 7.4528 17.9964 7.4528C17.4904 7.4528 17.0764 7.0388 17.0764 6.5328C17.0764 6.0268 17.4904 5.6128 17.9964 5.6128ZM12.4764 6.9928C15.2686 6.9928 17.5364 9.2606 17.5364 12.0528C17.5364 14.845 15.2686 17.1128 12.4764 17.1128C9.68425 17.1128 7.41645 14.845 7.41645 12.0528C7.41645 9.2606 9.68425 6.9928 12.4764 6.9928ZM12.4764 7.9128C10.1948 7.9128 8.33645 9.7712 8.33645 12.0528C8.33645 14.3344 10.1948 16.1928 12.4764 16.1928C14.758 16.1928 16.6164 14.3344 16.6164 12.0528C16.6164 9.7712 14.758 7.9128 12.4764 7.9128Z" fill="white"/>
</svg>
