<svg width="24" height="20" viewBox="0 0 24 20" fill="none" xmlns="http://www.w3.org/2000/svg">
<path fill-rule="evenodd" clip-rule="evenodd" d="M18.0904 19.4243C18.399 19.6428 18.7967 19.6974 19.1512 19.5632C19.5058 19.4281 19.7665 19.1253 19.8451 18.7583C20.6778 14.8445 22.698 4.93845 23.456 1.37832C23.5135 1.10999 23.4176 0.831122 23.2068 0.651917C22.996 0.472713 22.7037 0.420964 22.443 0.517754C18.4248 2.00505 6.05017 6.64807 0.992198 8.51966C0.671164 8.63849 0.462252 8.94706 0.472793 9.28535C0.484293 9.62459 0.712371 9.91879 1.04107 10.0175C3.3094 10.696 6.28687 11.6399 6.28687 11.6399C6.28687 11.6399 7.67834 15.8421 8.40378 17.9792C8.49482 18.2475 8.70469 18.4583 8.98164 18.5311C9.25764 18.603 9.55279 18.5273 9.75883 18.3328C10.9241 17.2326 12.7258 15.5316 12.7258 15.5316C12.7258 15.5316 16.1489 18.0414 18.0904 19.4243ZM7.53938 11.109L9.14839 16.4161L9.50584 13.0553C9.50584 13.0553 15.7224 7.44826 19.2662 4.25229C19.3697 4.15838 19.3841 4.00122 19.2979 3.89101C19.2126 3.7808 19.0554 3.75493 18.9375 3.82968C14.8302 6.45258 7.53938 11.109 7.53938 11.109Z" fill="white"/>
</svg>
