<svg width="30" height="28" viewBox="0 0 30 28" fill="none" xmlns="http://www.w3.org/2000/svg">
<path d="M16.6805 5.77337L24.6555 13.1984C24.7763 13.3109 24.8621 13.4327 24.9129 13.564C24.9628 13.6952 24.9878 13.8359 24.9878 13.9859C24.9878 14.1359 24.9628 14.2765 24.9129 14.4077C24.8621 14.539 24.7763 14.6609 24.6555 14.7734L16.6805 22.1984C16.459 22.4046 16.1823 22.5126 15.8504 22.5224C15.5177 22.5314 15.2305 22.4234 14.9888 22.1984C14.7472 21.9921 14.6211 21.7345 14.6106 21.4255C14.601 21.1157 14.717 20.8484 14.9586 20.6234L20.8795 15.1109L7.37634 15.1109C7.03397 15.1109 6.74679 15.0032 6.51479 14.788C6.2836 14.572 6.168 14.3046 6.168 13.9859C6.168 13.6671 6.2836 13.4001 6.51479 13.1849C6.74679 12.9689 7.03397 12.8609 7.37634 12.8609L20.8795 12.8609L14.9586 7.34837C14.7371 7.14212 14.6211 6.87962 14.6106 6.56087C14.601 6.24212 14.717 5.97962 14.9586 5.77337C15.1802 5.54837 15.4621 5.43587 15.8045 5.43587C16.1468 5.43587 16.4388 5.54837 16.6805 5.77337Z" fill="#96BE1E"/>
</svg>
