<svg width="16" height="15" viewBox="0 0 16 15" fill="none" xmlns="http://www.w3.org/2000/svg">
<path d="M8.98706 3.29401L13.1121 7.14401C13.1746 7.20234 13.2189 7.26553 13.2452 7.33359C13.271 7.40165 13.2839 7.47456 13.2839 7.55234C13.2839 7.63012 13.271 7.70303 13.2452 7.77109C13.2189 7.83915 13.1746 7.90234 13.1121 7.96067L8.98706 11.8107C8.87248 11.9176 8.72935 11.9736 8.55769 11.9787C8.3856 11.9833 8.23706 11.9273 8.11206 11.8107C7.98706 11.7037 7.92185 11.5701 7.91644 11.4099C7.91144 11.2493 7.97144 11.1107 8.09644 10.994L11.1589 8.13567L4.17456 8.13567C3.99748 8.13567 3.84894 8.07987 3.72894 7.96826C3.60935 7.85626 3.54956 7.71762 3.54956 7.55234C3.54956 7.38706 3.60935 7.24862 3.72894 7.13701C3.84894 7.02501 3.99748 6.96901 4.17456 6.96901L11.1589 6.96901L8.09644 4.11067C7.98185 4.00373 7.92185 3.86762 7.91644 3.70234C7.91144 3.53706 7.97144 3.40095 8.09644 3.29401C8.21102 3.17734 8.35685 3.11901 8.53394 3.11901C8.71102 3.11901 8.86206 3.17734 8.98706 3.29401Z" fill="#8CBA29"/>
</svg>
