<svg width="130" height="130" viewBox="0 0 130 130" fill="none" xmlns="http://www.w3.org/2000/svg">
<path d="M65 127C99.2417 127 127 99.2417 127 65C127 30.7583 99.2417 3 65 3C30.7583 3 3 30.7583 3 65C3 99.2417 30.7583 127 65 127Z" stroke="#96BE1E" stroke-width="2.75" stroke-miterlimit="10"/>
<path d="M50 75V87" stroke="#96BE1E" stroke-width="2.85" stroke-miterlimit="10"/>
<path d="M64.5 60C70.299 60 75 55.299 75 49.5C75 43.701 70.299 39 64.5 39C58.701 39 54 43.701 54 49.5C54 55.299 58.701 60 64.5 60Z" stroke="#96BE1E" stroke-width="2.85" stroke-miterlimit="10"/>
<path d="M56 45.9C56 45.9 62.495 47.125 69 41" stroke="#96BE1E" stroke-width="2.85" stroke-miterlimit="10"/>
<path d="M65 44C65 44 69.4563 48.2081 74 46.6565" stroke="#96BE1E" stroke-width="2.85" stroke-miterlimit="10"/>
<path d="M79 75V87" stroke="#96BE1E" stroke-width="2.85" stroke-miterlimit="10"/>
<path d="M65 71H73.7318L74 63" stroke="#96BE1E" stroke-width="2.85" stroke-miterlimit="10"/>
<path d="M74.0736 63L65 68.5154V72.1624H67.5038V77.2481H65V77.3081L68.2048 87H85V69.6844L74.0736 63Z" stroke="#96BE1E" stroke-width="2.85" stroke-miterlimit="10"/>
<path d="M65 71H56.2682L56 63" stroke="#96BE1E" stroke-width="2.85" stroke-miterlimit="10"/>
<path d="M55.9264 63L65 68.5154V72.1624H62.4962V77.2481H65V77.3081L61.4347 87H45V69.6844L55.9264 63Z" stroke="#96BE1E" stroke-width="2.85" stroke-miterlimit="10"/>
<path d="M63 78H69" stroke="#96BE1E" stroke-width="2.85" stroke-miterlimit="10"/>
<path d="M40.4206 62.1753V51.6718H37.2999C37.2395 51.6702 37.181 51.6504 37.1316 51.6149C37.0821 51.5794 37.0439 51.5298 37.0217 51.4723C36.9994 51.4147 36.9942 51.3517 37.0065 51.2911C37.0189 51.2305 37.0483 51.175 37.0911 51.1314L42.5773 46.0836C42.6342 46.0298 42.7087 46 42.786 46C42.8634 46 42.9379 46.0298 42.9948 46.0836L47.9045 51.1212C47.9488 51.1633 47.9796 51.2183 47.9928 51.2789C48.006 51.3394 48.0009 51.4026 47.9783 51.4601C47.9557 51.5176 47.9165 51.5667 47.8661 51.6009C47.8156 51.6351 47.7562 51.6527 47.6958 51.6514H44.257V65" stroke="#96BE1E" stroke-width="1.78" stroke-miterlimit="10"/>
<path d="M91.6092 48.8172V59.2925H94.7001C94.7605 59.2941 94.819 59.3139 94.8684 59.3493C94.9179 59.3847 94.9561 59.4341 94.9783 59.4915C95.0006 59.5489 95.0058 59.6118 94.9935 59.6722C94.9811 59.7326 94.9517 59.788 94.9089 59.8315L89.4227 64.9166C89.3658 64.9702 89.2913 65 89.214 65C89.1366 65 89.0621 64.9702 89.0052 64.9166L84.0955 59.8925C84.0512 59.8505 84.0204 59.7956 84.0072 59.7353C83.994 59.6749 83.9991 59.6118 84.0217 59.5545C84.0443 59.4971 84.0835 59.4482 84.1339 59.4141C84.1844 59.38 84.2438 59.3624 84.3042 59.3637H87.743V46" stroke="#96BE1E" stroke-width="1.78" stroke-miterlimit="10"/>
<path d="M60 87H70" stroke="#96BE1E" stroke-width="2.57" stroke-miterlimit="10"/>
<path d="M43.62 93H86.38C92.7887 88.476 97.5877 82.0364 100.083 74.6128C102.578 67.1893 102.639 59.1669 100.258 51.7062C97.8777 44.2454 93.1781 37.7334 86.8396 33.1121C80.501 28.4908 72.8523 26 65 26C57.1477 26 49.499 28.4908 43.1604 33.1121C36.8219 37.7334 32.1223 44.2454 29.7416 51.7062C27.3608 59.1669 27.4224 67.1893 29.9174 74.6128C32.4123 82.0364 37.2113 88.476 43.62 93V93Z" stroke="#96BE1E" stroke-width="2.85" stroke-miterlimit="10"/>
<path d="M28 99H102" stroke="#96BE1E" stroke-width="2.85" stroke-miterlimit="10"/>
<path d="M28 104H102" stroke="#96BE1E" stroke-width="2.85" stroke-miterlimit="10"/>
</svg>
