<svg width="130" height="130" viewBox="0 0 130 130" fill="none" xmlns="http://www.w3.org/2000/svg">
<path d="M65 127C99.2417 127 127 99.2417 127 65C127 30.7583 99.2417 3 65 3C30.7583 3 3 30.7583 3 65C3 99.2417 30.7583 127 65 127Z" stroke="#96BE1E" stroke-width="2.75" stroke-miterlimit="10"/>
<path d="M79.5 81C82.5376 81 85 78.5376 85 75.5C85 72.4624 82.5376 70 79.5 70C76.4624 70 74 72.4624 74 75.5C74 78.5376 76.4624 81 79.5 81Z" stroke="#96BE1E" stroke-width="2.02" stroke-miterlimit="10"/>
<path d="M74 73.9382C74 73.9382 77.5 74.6833 81 71" stroke="#96BE1E" stroke-width="2.02" stroke-miterlimit="10"/>
<path d="M79 72C79 72 81.46 73.3983 84 72.8879" stroke="#96BE1E" stroke-width="2.02" stroke-miterlimit="10"/>
<path d="M80 84.0377C80 84.0377 74.6914 83.8142 72.9877 84.4555C71.1281 85.2035 69.5283 86.8746 69.1439 90.7413C68.952 93.611 68.952 96.4891 69.1439 99.3588C69.152 99.5315 69.231 99.6946 69.3646 99.8141C69.4981 99.9336 69.6759 100 69.8607 100H73.289" stroke="#96BE1E" stroke-width="2.02" stroke-miterlimit="10"/>
<path d="M79 84.0372C79 84.0372 84.3501 83.8004 86.0123 84.5213C87.8615 85.3143 89.4717 87.0858 89.8561 91.1849C90.048 94.227 90.048 97.2781 89.8561 100.32C89.8455 100.504 89.7642 100.677 89.6289 100.804C89.4937 100.93 89.3148 101 89.1289 101H85.7526" stroke="#96BE1E" stroke-width="2.02" stroke-miterlimit="10"/>
<path d="M73 94V104.319C73 104.499 73.0738 104.673 73.2051 104.8C73.3364 104.928 73.5145 105 73.7002 105H82" stroke="#96BE1E" stroke-width="2.02" stroke-miterlimit="10"/>
<path d="M86 94V104.319C86 104.409 85.9815 104.498 85.9454 104.582C85.9094 104.665 85.8566 104.741 85.7901 104.804C85.7236 104.867 85.6447 104.917 85.5581 104.951C85.4714 104.985 85.3787 105.001 85.2854 105H77" stroke="#96BE1E" stroke-width="2.02" stroke-miterlimit="10"/>
<path d="M41.5 36C44.5376 36 47 33.5376 47 30.5C47 27.4624 44.5376 25 41.5 25C38.4624 25 36 27.4624 36 30.5C36 33.5376 38.4624 36 41.5 36Z" stroke="#96BE1E" stroke-width="2.02" stroke-miterlimit="10"/>
<path d="M36 28.9405C36 28.9405 39.5051 29.6729 43 26" stroke="#96BE1E" stroke-width="2.02" stroke-miterlimit="10"/>
<path d="M41 28C41 28 43.46 29.3924 46 28.8911" stroke="#96BE1E" stroke-width="2.02" stroke-miterlimit="10"/>
<path d="M42 39.0357C42 39.0357 36.6518 38.8126 34.9902 39.4818C33.1313 40.2286 31.532 41.9065 31.1478 45.7667C30.9507 48.6313 30.9507 51.5048 31.1478 54.3695C31.1559 54.541 31.2353 54.7028 31.3691 54.8205C31.5029 54.9383 31.6806 55.0026 31.8644 54.9999H35.2914" stroke="#96BE1E" stroke-width="2.02" stroke-miterlimit="10"/>
<path d="M41 39.0357C41 39.0357 46.3501 38.8126 48.0123 39.4818C49.8615 40.2286 51.4717 41.9065 51.8561 45.7667C52.048 48.6315 52.048 51.5047 51.8561 54.3695C51.8454 54.5419 51.7638 54.7037 51.6282 54.8212C51.4927 54.9387 51.3138 55.0027 51.1289 54.9999H47.7007" stroke="#96BE1E" stroke-width="2.02" stroke-miterlimit="10"/>
<path d="M35 49V59.3175C35.0027 59.4977 35.0773 59.6698 35.208 59.7972C35.3388 59.9247 35.5153 59.9974 35.7002 60H44" stroke="#96BE1E" stroke-width="2.02" stroke-miterlimit="10"/>
<path d="M48 49V59.3175C48 59.4985 47.9259 59.6721 47.794 59.8001C47.662 59.9281 47.4831 60 47.2966 60H39" stroke="#96BE1E" stroke-width="2.02" stroke-miterlimit="10"/>
<path d="M41 69V96H62" stroke="#96BE1E" stroke-width="2.69" stroke-miterlimit="10"/>
<path d="M77.4807 57.4614H99V32H60V57.4614H67.2133L65.204 66.5891C65.1895 66.6572 65.1963 66.7281 65.2235 66.7922C65.2507 66.8563 65.297 66.9106 65.3562 66.9477C65.4153 66.9848 65.4844 67.0029 65.5542 66.9996C65.624 66.9963 65.6912 66.9718 65.7465 66.9294L77.4807 57.4614Z" stroke="#96BE1E" stroke-width="2.69" stroke-miterlimit="10"/>
<path d="M67 36H85" stroke="#96BE1E" stroke-width="2.02" stroke-miterlimit="10"/>
<path d="M87 36H93" stroke="#96BE1E" stroke-width="2.02" stroke-miterlimit="10"/>
<path d="M67 40H73" stroke="#96BE1E" stroke-width="2.02" stroke-miterlimit="10"/>
<path d="M75 40H93" stroke="#96BE1E" stroke-width="2.02" stroke-miterlimit="10"/>
<path d="M67 44H85" stroke="#96BE1E" stroke-width="2.02" stroke-miterlimit="10"/>
<path d="M87 44H93" stroke="#96BE1E" stroke-width="2.02" stroke-miterlimit="10"/>
<path d="M67 48H72" stroke="#96BE1E" stroke-width="2.02" stroke-miterlimit="10"/>
<path d="M75 48H93" stroke="#96BE1E" stroke-width="2.02" stroke-miterlimit="10"/>
<path d="M67 52H85" stroke="#96BE1E" stroke-width="2.02" stroke-miterlimit="10"/>
<path d="M87 52H93" stroke="#96BE1E" stroke-width="2.02" stroke-miterlimit="10"/>
</svg>
