<svg width="130" height="130" viewBox="0 0 130 130" fill="none" xmlns="http://www.w3.org/2000/svg">
<path d="M65 127C99.2417 127 127 99.2417 127 65C127 30.7583 99.2417 3 65 3C30.7583 3 3 30.7583 3 65C3 99.2417 30.7583 127 65 127Z" stroke="#96BE1E" stroke-width="2.75" stroke-miterlimit="10"/>
<path d="M77.4942 47V65.1028H52.3477V47H40V79H89V47H77.4942Z" stroke="#96BE1E" stroke-width="3.25" stroke-miterlimit="10"/>
<path d="M78 36H53V66H78V36Z" stroke="#96BE1E" stroke-width="3.24" stroke-miterlimit="10"/>
<path d="M32.0685 92L32 42.8889C32 42.3879 32.1939 41.9075 32.5391 41.5532C32.8842 41.199 33.3523 41 33.8404 41H52" stroke="#96BE1E" stroke-width="3.76" stroke-miterlimit="10"/>
<path d="M99 92L98.9186 42.8889C98.9186 42.64 98.8687 42.3936 98.7719 42.1637C98.6751 41.9339 98.5332 41.7252 98.3545 41.5497C98.1757 41.3742 97.9635 41.2352 97.7301 41.1409C97.4968 41.0466 97.2468 40.9987 96.9947 41H78" stroke="#96BE1E" stroke-width="3.77" stroke-miterlimit="10"/>
<path d="M33 90H97" stroke="#96BE1E" stroke-width="3.64" stroke-miterlimit="10"/>
<path d="M49 100H80" stroke="#96BE1E" stroke-width="3.25" stroke-miterlimit="10"/>
<path d="M55 100L59 90" stroke="#96BE1E" stroke-width="3.25" stroke-miterlimit="10"/>
<path d="M75 100L71 90" stroke="#96BE1E" stroke-width="3.25" stroke-miterlimit="10"/>
<path d="M56 105H72" stroke="#96BE1E" stroke-width="3.25" stroke-miterlimit="10"/>
<path d="M65 87C66.1046 87 67 86.1046 67 85C67 83.8954 66.1046 83 65 83C63.8954 83 63 83.8954 63 85C63 86.1046 63.8954 87 65 87Z" stroke="#96BE1E" stroke-width="1.47" stroke-miterlimit="10"/>
<path d="M59.5 44C60.3284 44 61 43.3284 61 42.5C61 41.6716 60.3284 41 59.5 41C58.6716 41 58 41.6716 58 42.5C58 43.3284 58.6716 44 59.5 44Z" stroke="#96BE1E" stroke-width="1.26" stroke-miterlimit="10"/>
<path d="M70.5 44C71.3284 44 72 43.3284 72 42.5C72 41.6716 71.3284 41 70.5 41C69.6716 41 69 41.6716 69 42.5C69 43.3284 69.6716 44 70.5 44Z" stroke="#96BE1E" stroke-width="1.26" stroke-miterlimit="10"/>
<path d="M60 39V30.3401C60 26.4655 61.2639 24.9253 65 25.0028" stroke="#96BE1E" stroke-width="3.25" stroke-miterlimit="10"/>
<path d="M70 39V30.3401C70 26.4655 68.7361 24.9253 65 25.0028" stroke="#96BE1E" stroke-width="3.25" stroke-miterlimit="10"/>
</svg>
