<svg width="130" height="130" viewBox="0 0 130 130" fill="none" xmlns="http://www.w3.org/2000/svg">
<path d="M65 127C99.2417 127 127 99.2417 127 65C127 30.7583 99.2417 3 65 3C30.7583 3 3 30.7583 3 65C3 99.2417 30.7583 127 65 127Z" stroke="#96BE1E" stroke-width="2.75" stroke-miterlimit="10"/>
<path d="M67.0599 88.5222L69.537 82.4019C69.6003 82.2479 69.7199 82.1242 69.8711 82.0564C70.0223 81.9885 70.1936 81.9817 70.3497 82.0372L81.5114 86.2949C81.6883 86.3618 81.8337 86.4931 81.919 86.6629C82.0042 86.8326 82.023 87.0284 81.9716 87.2114L78.8874 98.5749C78.8628 98.6686 78.8148 98.7545 78.748 98.8244C78.6813 98.8943 78.598 98.946 78.506 98.9746C78.4139 99.0032 78.3162 99.0077 78.2219 98.9878C78.1276 98.9679 78.0399 98.9242 77.9671 98.8607L67.2655 89.4289C67.1426 89.3175 67.0569 89.1706 67.0201 89.0083C66.9833 88.846 66.9972 88.6763 67.0599 88.5222Z" stroke="#96BE1E" stroke-width="2.18" stroke-miterlimit="10"/>
<path d="M81.0118 73.7306C83.0546 72.9656 84.8957 71.7298 86.3912 70.1198C87.8866 68.5098 88.9958 66.5693 89.6319 64.4502C91.7845 57.1391 92.7467 54.0389 94.5917 52.4534C96.4367 50.868 98.5595 53.5845 97.8652 58.3509C97.1708 63.1173 96.3772 67.6514 94.2941 71.4786C92.211 75.3059 91.6258 76.0229 87.6083 78.2849C83.5909 80.5469 80.5555 84.3439 80 86" stroke="#96BE1E" stroke-width="2.18" stroke-miterlimit="10"/>
<path d="M77.5 91C78.3284 91 79 90.3284 79 89.5C79 88.6716 78.3284 88 77.5 88C76.6716 88 76 88.6716 76 89.5C76 90.3284 76.6716 91 77.5 91Z" stroke="#96BE1E" stroke-width="1.64" stroke-miterlimit="10"/>
<path d="M62.9401 88.5222L60.463 82.4019C60.3997 82.2479 60.2801 82.1242 60.1289 82.0564C59.9777 81.9885 59.8064 81.9817 59.6503 82.0372L48.4886 86.2949C48.3117 86.3618 48.1663 86.4931 48.081 86.6629C47.9958 86.8326 47.977 87.0284 48.0284 87.2114L51.1223 98.5749C51.147 98.6686 51.195 98.7545 51.2617 98.8244C51.3285 98.8943 51.4118 98.946 51.5038 98.9746C51.5959 99.0032 51.6936 99.0077 51.7879 98.9878C51.8822 98.9679 51.9698 98.9242 52.0427 98.8607L62.7345 89.4289C62.8574 89.3175 62.9431 89.1706 62.9799 89.0083C63.0167 88.846 63.0028 88.6763 62.9401 88.5222V88.5222Z" stroke="#96BE1E" stroke-width="2.18" stroke-miterlimit="10"/>
<path d="M48.9882 73.7306C46.9454 72.9656 45.1043 71.7298 43.6088 70.1198C42.1134 68.5098 41.0042 66.5693 40.3681 64.4502C38.2155 57.1391 37.2533 54.0389 35.4083 52.4534C33.5633 50.868 31.4405 53.5845 32.1348 58.3509C32.8292 63.1173 33.6228 67.6514 35.7059 71.4786C37.789 75.3059 38.3743 76.0229 42.3917 78.2849C46.4091 80.5469 49.4445 84.3439 50 86" stroke="#96BE1E" stroke-width="2.18" stroke-miterlimit="10"/>
<path d="M52.5 91C53.3284 91 54 90.3284 54 89.5C54 88.6716 53.3284 88 52.5 88C51.6716 88 51 88.6716 51 89.5C51 90.3284 51.6716 91 52.5 91Z" stroke="#96BE1E" stroke-width="1.64" stroke-miterlimit="10"/>
<path d="M71.0144 82C70.879 78.7557 71.7036 75.5442 73.3831 72.7748C76.2474 67.672 84.2853 62.279 86.9414 63.0794C89.5976 63.8799 88.9236 65.9811 88.9236 65.9811" stroke="#96BE1E" stroke-width="2.18" stroke-miterlimit="10"/>
<path d="M58.9863 82C59.1186 78.7547 58.291 75.5431 56.6089 72.7748C53.746 67.672 45.7123 62.279 43.0575 63.0794C40.4027 63.8799 41.0763 65.9811 41.0763 65.9811" stroke="#96BE1E" stroke-width="2.18" stroke-miterlimit="10"/>
<path d="M80.9393 49.4785C80.9798 48.9873 81 48.4928 81 47.995C81 47.4971 80.9798 47.0026 80.9393 46.5114L77.3169 45.5022C77.1154 44.2775 76.7478 43.0858 76.2241 41.9599L78.521 38.9323C78.0055 38.0877 77.4199 37.2876 76.7705 36.5405L73.1885 37.8424C72.2799 36.9881 71.2586 36.2615 70.1529 35.6827L70.2642 31.9184C69.3489 31.5295 68.4008 31.2221 67.431 31L65.3062 34.1083C64.0804 33.9469 62.8387 33.9469 61.6129 34.1083L59.4779 31C58.5119 31.2237 57.5673 31.5309 56.6548 31.9184L56.756 35.6827C55.6729 36.2681 54.6725 36.9943 53.7811 37.8424L50.2295 36.5809C49.5801 37.328 48.9945 38.128 48.479 38.9727L50.7759 42.0003C50.2608 43.0942 49.8933 44.2514 49.6831 45.4417L46.0607 46.4509C46.0202 46.9353 46 47.4298 46 47.9344C46 48.439 46.0202 48.9537 46.0607 49.4785L49.6831 50.5381C49.9025 51.7507 50.2837 52.9284 50.8164 54.0401L48.5195 57.0172C49.0325 57.8635 49.6182 58.6638 50.27 59.409L53.8216 58.1475C54.7153 58.9957 55.7152 59.725 56.7965 60.3173L56.6953 64.0816C57.6097 64.4613 58.5539 64.7651 59.5184 64.9899L61.6534 61.8917C62.8791 62.0531 64.1209 62.0531 65.3466 61.8917L67.4715 65C68.4397 64.7767 69.3874 64.4728 70.3047 64.0917L70.1529 60.3274C71.2564 59.7409 72.2771 59.0113 73.1885 58.1576L76.7401 59.4191C77.3919 58.6739 77.9776 57.8736 78.4906 57.0273L76.2241 54.0502C76.7568 52.9385 77.1379 51.7608 77.3573 50.5482L80.9393 49.4785ZM63.4949 55.6649C61.9756 55.6669 60.4897 55.2193 59.2254 54.3789C57.9611 53.5384 56.9752 52.3428 56.3924 50.9433C55.8095 49.5439 55.656 48.0034 55.9512 46.5169C56.2464 45.0304 56.977 43.6646 58.0507 42.5923C59.1243 41.52 60.4928 40.7895 61.9828 40.4931C63.4729 40.1968 65.0176 40.3479 66.4215 40.9273C67.8254 41.5068 69.0254 42.4885 69.8698 43.7484C70.7141 45.0083 71.1648 46.4896 71.1648 48.005C71.1648 50.0348 70.357 51.9816 68.919 53.4178C67.4809 54.854 65.53 55.6622 63.4949 55.6649V55.6649Z" stroke="#96BE1E" stroke-width="2.18" stroke-miterlimit="10"/>
</svg>
