<svg width="130" height="130" viewBox="0 0 130 130" fill="none" xmlns="http://www.w3.org/2000/svg">
<path d="M65 127C99.2417 127 127 99.2417 127 65C127 30.7583 99.2417 3 65 3C30.7583 3 3 30.7583 3 65C3 99.2417 30.7583 127 65 127Z" stroke="#96BE1E" stroke-width="2.75" stroke-miterlimit="10"/>
<path d="M64.5 39C69.1944 39 73 35.1944 73 30.5C73 25.8056 69.1944 22 64.5 22C59.8056 22 56 25.8056 56 30.5C56 35.1944 59.8056 39 64.5 39Z" stroke="#96BE1E" stroke-width="2.06" stroke-miterlimit="10"/>
<path d="M58 27.9256C58 27.9256 62.9952 28.8738 68 24" stroke="#96BE1E" stroke-width="2.06" stroke-miterlimit="10"/>
<path d="M65 26C65 26 68.467 28.7927 72 27.778" stroke="#96BE1E" stroke-width="2.06" stroke-miterlimit="10"/>
<path d="M41 96C43.7614 96 46 93.7614 46 91C46 88.2386 43.7614 86 41 86C38.2386 86 36 88.2386 36 91C36 93.7614 38.2386 96 41 96Z" stroke="#96BE1E" stroke-width="2.06" stroke-miterlimit="10"/>
<path d="M37 89.941C37 89.941 40 90.6704 43 87" stroke="#96BE1E" stroke-width="1.38" stroke-miterlimit="10"/>
<path d="M41 88C41 88 42.9821 89.402 45 88.8859" stroke="#96BE1E" stroke-width="1.38" stroke-miterlimit="10"/>
<path d="M76 51V61" stroke="#96BE1E" stroke-width="2.06" stroke-miterlimit="10"/>
<path d="M65 48H71.7975L72 42" stroke="#96BE1E" stroke-width="2.06" stroke-miterlimit="10"/>
<path d="M72.2555 42L65 46.3626V49.2545H66.9988V53.2816H65V53.3309L67.5584 61H81V47.2904L72.2555 42Z" stroke="#96BE1E" stroke-width="2.06" stroke-miterlimit="10"/>
<path d="M54 51V61" stroke="#96BE1E" stroke-width="2.06" stroke-miterlimit="10"/>
<path d="M65 48H58.2118L58 42" stroke="#96BE1E" stroke-width="2.06" stroke-miterlimit="10"/>
<path d="M57.7345 42L65 46.3626V49.2545H62.9913V53.2816H65V53.3309L62.1418 61H49V47.2904L57.7345 42Z" stroke="#96BE1E" stroke-width="2.06" stroke-miterlimit="10"/>
<path d="M62 61H68" stroke="#96BE1E" stroke-width="2.06" stroke-miterlimit="10"/>
<path d="M65 64V78" stroke="#96BE1E" stroke-width="2.51" stroke-miterlimit="10"/>
<path d="M41 82V71H89V82" stroke="#96BE1E" stroke-width="2.75" stroke-miterlimit="10"/>
<path d="M50 108C50 104.849 47.402 99 44.2059 99H37.7843C34.5882 99 32 104.8 32 108" stroke="#96BE1E" stroke-width="2.06" stroke-miterlimit="10"/>
<path d="M64 96C66.7614 96 69 93.7614 69 91C69 88.2386 66.7614 86 64 86C61.2386 86 59 88.2386 59 91C59 93.7614 61.2386 96 64 96Z" stroke="#96BE1E" stroke-width="2.06" stroke-miterlimit="10"/>
<path d="M60 89.941C60 89.941 63 90.6704 66 87" stroke="#96BE1E" stroke-width="1.38" stroke-miterlimit="10"/>
<path d="M64 88C64 88 65.9821 89.402 68 88.8859" stroke="#96BE1E" stroke-width="1.38" stroke-miterlimit="10"/>
<path d="M73 108C73 104.849 70.4104 99 67.2125 99H60.7875C57.5896 99 55 104.8 55 108" stroke="#96BE1E" stroke-width="2.06" stroke-miterlimit="10"/>
<path d="M89 96C91.7614 96 94 93.7614 94 91C94 88.2386 91.7614 86 89 86C86.2386 86 84 88.2386 84 91C84 93.7614 86.2386 96 89 96Z" stroke="#96BE1E" stroke-width="2.06" stroke-miterlimit="10"/>
<path d="M84 89.941C84 89.941 87 90.6704 90 87" stroke="#96BE1E" stroke-width="1.38" stroke-miterlimit="10"/>
<path d="M89 88C89 88 90.9777 89.402 93 88.8859" stroke="#96BE1E" stroke-width="1.38" stroke-miterlimit="10"/>
<path d="M98 108C98 104.849 95.4104 99 92.2125 99H85.7973C82.5995 99 80 104.8 80 108" stroke="#96BE1E" stroke-width="2.06" stroke-miterlimit="10"/>
</svg>
