<svg width="48" height="44" viewBox="0 0 48 44" fill="none" xmlns="http://www.w3.org/2000/svg">
<path d="M26.25 8.61672L39.45 20.7167C39.65 20.9001 39.792 21.0987 39.876 21.3125C39.9587 21.5264 40 21.7556 40 22.0001C40 22.2445 39.9587 22.4737 39.876 22.6876C39.792 22.9014 39.65 23.1 39.45 23.2834L26.25 35.3834C25.8833 35.7195 25.4253 35.8955 24.876 35.9114C24.3253 35.9261 23.85 35.7501 23.45 35.3834C23.05 35.0473 22.8413 34.6274 22.824 34.1239C22.808 33.6191 23 33.1834 23.4 32.8167L33.2 23.8334L10.85 23.8334C10.2833 23.8334 9.808 23.658 9.424 23.3072C9.04133 22.9552 8.85 22.5195 8.85 22.0001C8.85 21.4806 9.04133 21.0455 9.424 20.6947C9.808 20.3427 10.2833 20.1667 10.85 20.1667L33.2 20.1667L23.4 11.1834C23.0333 10.8473 22.8413 10.4195 22.824 9.90005C22.808 9.3806 23 8.95283 23.4 8.61672C23.7667 8.25005 24.2333 8.06672 24.8 8.06672C25.3667 8.06672 25.85 8.25005 26.25 8.61672Z" fill="#757978"/>
</svg>
