<svg width="48" height="44" viewBox="0 0 48 44" fill="none" xmlns="http://www.w3.org/2000/svg">
<path d="M21.75 35.3833L8.55 23.2833C8.35 23.0999 8.208 22.9013 8.124 22.6875C8.04133 22.4736 8 22.2444 8 21.9999C8 21.7555 8.04133 21.5263 8.124 21.3124C8.208 21.0986 8.35 20.9 8.55 20.7166L21.75 8.61661C22.1167 8.2805 22.5747 8.1045 23.124 8.08861C23.6747 8.07395 24.15 8.24995 24.55 8.61661C24.95 8.95273 25.1587 9.37256 25.176 9.87611C25.192 10.3809 25 10.8166 24.6 11.1833L14.8 20.1666H37.15C37.7167 20.1666 38.192 20.342 38.576 20.6928C38.9587 21.0448 39.15 21.4805 39.15 21.9999C39.15 22.5194 38.9587 22.9545 38.576 23.3053C38.192 23.6573 37.7167 23.8333 37.15 23.8333H14.8L24.6 32.8166C24.9667 33.1527 25.1587 33.5805 25.176 34.1C25.192 34.6194 25 35.0472 24.6 35.3833C24.2333 35.75 23.7667 35.9333 23.2 35.9333C22.6333 35.9333 22.15 35.75 21.75 35.3833Z" fill="#D1D1D1"/>
</svg>
